<svg xmlns="http://www.w3.org/2000/svg" viewBox="0 0 200 52" fill="none" role="img" aria-label="Rose and Stem logo">
  
  <g transform="translate(4, 4)">
    
    <ellipse cx="22" cy="16" rx="7" ry="10" fill="#C84C6A" opacity="0.85" transform="rotate(-30 22 16)"/>
    <ellipse cx="22" cy="16" rx="7" ry="10" fill="#C84C6A" opacity="0.85" transform="rotate(30 22 16)"/>
    <ellipse cx="22" cy="16" rx="7" ry="10" fill="#D97A8C" opacity="0.80" transform="rotate(90 22 16)"/>
    <ellipse cx="22" cy="16" rx="7" ry="10" fill="#D97A8C" opacity="0.80" transform="rotate(-90 22 16)"/>
    
    <ellipse cx="22" cy="16" rx="5" ry="7.5" fill="#EFA3B1" opacity="0.90" transform="rotate(0 22 16)"/>
    <ellipse cx="22" cy="16" rx="5" ry="7.5" fill="#EFA3B1" opacity="0.90" transform="rotate(60 22 16)"/>
    <ellipse cx="22" cy="16" rx="5" ry="7.5" fill="#EFA3B1" opacity="0.90" transform="rotate(-60 22 16)"/>
    
    <circle cx="22" cy="16" r="5" fill="#E6C07B" opacity="0.95"/>
    <circle cx="22" cy="16" r="2.5" fill="#C84C6A"/>
    
    <path d="M22 26 C21 30 20 35 21 42" stroke="#5E8B7E" stroke-width="2" stroke-linecap="round"/>
    
    <path d="M21 33 C17 31 14 33 16 37 C18 35 21 34 21 33Z" fill="#5E8B7E" opacity="0.9"/>
  </g>

  
  <text x="52" y="24" font-family="Georgia, 'Playfair Display', serif" font-size="22" font-weight="700" font-style="italic" fill="#5A1E2A" letter-spacing="-0.5">Rose</text>

  
  <text x="104" y="24" font-family="Georgia, serif" font-size="16" font-weight="400" fill="#C84C6A" opacity="0.85">&amp;</text>

  
  <text x="118" y="24" font-family="Georgia, 'Playfair Display', serif" font-size="22" font-weight="600" fill="#5A1E2A" letter-spacing="1">Stem</text>

  
  <text x="52" y="38" font-family="'Inter', Arial, sans-serif" font-size="9" font-weight="500" fill="#7A7A7A" letter-spacing="2.5">FLORIST &amp; DELIVERY</text>
</svg>
